<svg id="Layer_1" data-name="Layer 1" xmlns="http://www.w3.org/2000/svg" viewBox="0 0 566.93 566.93"><path d="M134.59,58.46H117.86a.62.62,0,0,0-.6.49L99.53,138.71a.62.62,0,0,0,.6.75h16.74a.61.61,0,0,0,.6-.48L135.2,59.22A.63.63,0,0,0,134.59,58.46Z"/><path d="M118.13,58.46h16.74a.62.62,0,0,1,.6.49l17.73,79.76a.62.62,0,0,1-.61.75H135.86a.61.61,0,0,1-.6-.48L117.53,59.22A.63.63,0,0,1,118.13,58.46Z"/><path d="M145.13,58.46h16.74a.62.62,0,0,1,.6.49l17.73,79.76a.62.62,0,0,1-.61.75H162.86a.61.61,0,0,1-.6-.48L144.53,59.22A.63.63,0,0,1,145.13,58.46Z"/><path d="M197.59,58.46H180.86a.62.62,0,0,0-.6.49l-17.73,79.76a.62.62,0,0,0,.6.75h16.74a.61.61,0,0,0,.6-.48L198.2,59.22A.63.63,0,0,0,197.59,58.46Z"/><path d="M181.13,58.46h16.74a.62.62,0,0,1,.6.49l17.73,79.76a.62.62,0,0,1-.61.75H198.86a.61.61,0,0,1-.6-.48L180.53,59.22A.63.63,0,0,1,181.13,58.46Z"/></svg>